<mxfile host="drawio-plugin" modified="2024-03-08T15:23:06.459Z" agent="5.0 (Macintosh; Intel Mac OS X 10_15_7) AppleWebKit/537.36 (KHTML, like Gecko) Chrome/111.0.0.0 Safari/537.36" version="20.5.3" etag="Wplllkxs8r6oGt1SBviv" type="embed"><diagram id="wkH_lsjn6N1nRvHEFvS2" name="Page-1"><mxGraphModel dx="462" dy="593" grid="1" gridSize="10" guides="1" tooltips="1" connect="1" arrows="1" fold="1" page="1" pageScale="1" pageWidth="850" pageHeight="1100" math="0" shadow="0"><root><mxCell id="0"/><mxCell id="1" parent="0"/><mxCell id="3" value="" style="endArrow=none;html=1;rounded=0;" edge="1" parent="1"><mxGeometry width="50" height="50" relative="1" as="geometry"><mxPoint y="120" as="sourcePoint"/><mxPoint x="590" y="120" as="targetPoint"/></mxGeometry></mxCell><mxCell id="2" value="" style="ellipse;whiteSpace=wrap;html=1;aspect=fixed;fillColor=#60a917;fontColor=#ffffff;strokeColor=#2D7600;" vertex="1" parent="1"><mxGeometry x="40" y="80" width="80" height="80" as="geometry"/></mxCell><mxCell id="6" value="&lt;b&gt;Master&lt;/b&gt;" style="text;html=1;strokeColor=none;fillColor=none;align=center;verticalAlign=middle;whiteSpace=wrap;rounded=0;" vertex="1" parent="1"><mxGeometry x="610" y="105" width="60" height="30" as="geometry"/></mxCell><mxCell id="10" value="" style="group" vertex="1" connectable="0" parent="1"><mxGeometry x="120" y="240" width="470" as="geometry"/></mxCell><mxCell id="7" value="" style="endArrow=none;html=1;rounded=0;exitX=0.5;exitY=1;exitDx=0;exitDy=0;" edge="1" parent="10" source="2"><mxGeometry width="50" height="50" relative="1" as="geometry"><mxPoint x="13.428571428571427" y="60" as="sourcePoint"/><mxPoint as="targetPoint"/></mxGeometry></mxCell><mxCell id="8" value="" style="endArrow=none;html=1;rounded=0;" edge="1" parent="10"><mxGeometry width="50" height="50" relative="1" as="geometry"><mxPoint as="sourcePoint"/><mxPoint x="469.99999999999994" as="targetPoint"/></mxGeometry></mxCell><mxCell id="11" value="&lt;b&gt;Local&lt;/b&gt;" style="text;html=1;strokeColor=none;fillColor=none;align=center;verticalAlign=middle;whiteSpace=wrap;rounded=0;" vertex="1" parent="1"><mxGeometry x="610" y="225" width="60" height="30" as="geometry"/></mxCell></root></mxGraphModel></diagram></mxfile>